<svg width="60" height="59" viewBox="0 0 60 59" fill="none" xmlns="http://www.w3.org/2000/svg">
<path d="M30 -0.00012207C13.4274 -0.00012207 0 13.0077 0 29.0624C0 45.1171 13.4274 58.1249 30 58.1249C46.5726 58.1249 60 45.1171 60 29.0624C60 13.0077 46.5726 -0.00012207 30 -0.00012207ZM30 11.2499C35.879 11.2499 40.6452 15.8671 40.6452 21.5624C40.6452 27.2577 35.879 31.8749 30 31.8749C24.121 31.8749 19.3548 27.2577 19.3548 21.5624C19.3548 15.8671 24.121 11.2499 30 11.2499ZM30 51.5624C22.8992 51.5624 16.5363 48.4452 12.2782 43.5702C14.5524 39.4218 19.004 36.5624 24.1935 36.5624C24.4839 36.5624 24.7742 36.6093 25.0524 36.6913C26.625 37.1835 28.2702 37.4999 30 37.4999C31.7298 37.4999 33.3871 37.1835 34.9476 36.6913C35.2258 36.6093 35.5161 36.5624 35.8064 36.5624C40.996 36.5624 45.4476 39.4218 47.7218 43.5702C43.4637 48.4452 37.1008 51.5624 30 51.5624Z" fill="#EB6534"/>
</svg>
