<svg width="47" height="42" viewBox="0 0 47 42" fill="none" xmlns="http://www.w3.org/2000/svg">
<path d="M33.9447 14.9999C33.9447 6.71238 26.348 -0.00012207 16.9725 -0.00012207C7.59695 -0.00012207 0.000244141 6.71238 0.000244141 14.9999C0.000244141 18.2155 1.15077 21.178 3.10094 23.6249C2.00754 26.4561 0.204237 28.7061 0.179758 28.7343C0.000244141 28.9499 -0.0487142 29.2686 0.0573622 29.5499C0.163439 29.8311 0.391911 29.9999 0.653022 29.9999C3.63948 29.9999 6.11188 28.8468 7.8907 27.6561C10.5181 29.128 13.627 29.9999 16.9725 29.9999C26.348 29.9999 33.9447 23.2874 33.9447 14.9999ZM43.8996 35.6249C45.8497 33.1874 47.0002 30.2155 47.0002 26.9999C47.0002 20.728 42.6348 15.3561 36.4497 13.1155C36.5232 13.7343 36.5558 14.3624 36.5558 14.9999C36.5558 24.928 27.7678 32.9999 16.9725 32.9999C16.0912 32.9999 15.2344 32.9249 14.3858 32.8218C16.9561 38.2124 22.9943 41.9999 30.028 41.9999C33.3735 41.9999 36.4824 41.1374 39.1098 39.6561C40.8886 40.8468 43.361 41.9999 46.3475 41.9999C46.6086 41.9999 46.8452 41.8218 46.9431 41.5499C47.0492 41.278 47.0002 40.9593 46.8207 40.7343C46.7962 40.7061 44.993 38.4655 43.8996 35.6249Z" fill="#EB6534"/>
</svg>
