<?xml version="1.0" encoding="utf-8"?>
<!-- Generator: Adobe Illustrator 23.1.0, SVG Export Plug-In . SVG Version: 6.00 Build 0)  -->
<svg version="1.1" id="Layer_1" xmlns="http://www.w3.org/2000/svg" xmlns:xlink="http://www.w3.org/1999/xlink" x="0px" y="0px"
	 viewBox="0 0 393.2 391.4" style="enable-background:new 0 0 393.2 391.4;" xml:space="preserve">
<style type="text/css">
	.st0{fill:#1F3F93;}
	.st1{fill:#FFFFFF;}
</style>
<ellipse class="st0" cx="196.6" cy="195.7" rx="196.6" ry="195.9"/>
<g>
	<path class="st1" d="M36,184.2c-2.3,0.3-2.7,39.2,14,76.8c2.2,4.9,6.5,14.2,13.1,23.7c32.5,47.4,111.7,67.3,169.7,44.7
		c15.7-6.1,26.4-14.1,26.4-14.1c0.2-0.2,0.2-0.2,0.2-0.2c0.1-0.1,0.2-0.3,0.3-0.6c0.1-0.4-0.2-0.8-0.2-0.9
		c-0.8-1.3-2.1-10.6-9.9-21.8c-3.1-4.4-6.1-7.4-7.8-9.1c-2.5-2.5-8.2-7.9-16.6-12.8c-6-3.4-12-5.7-27.5-9.5
		c-14.8-3.6-14.8-2.9-29.2-6.3c0,0-39-9-48.5-18.3c-0.2-0.2-1.1-1.1-2.7-1.9c-2.5-1.1-6.6-1.9-9.2,0.2c-2.1,1.8-2.3,4.7-2.3,6
		c-0.2,6.5,4.2,12,7.8,15.7c17.3,17.8,44.6,27,47.5,27.4c0.2,0,1.4,0.2,2.3,1c0.6,0.5,1.2,1.4,1,1.9c-0.4,1.8-8.7,1.2-9.7,1.1
		c-9-0.6-17-3.2-24.8-6.4c-7-2.9-15.4-6.4-25.3-13.3c-1.9-1.3-7.2-5.2-17.2-14.7c-10.3-9.8-21.5-20.3-31.9-36
		c-9.4-14.1-14.1-21-17.9-29.8C36.9,185.4,36.4,184.1,36,184.2z"/>
	<path class="st1" d="M257.4,284c0.2-0.7,0.3-1.8,0.5-3.1c1-7.2,0.4-14.2-2.3-21.6c-5.1-14.4-11.5-25-14.4-29.6
		c-2.3-3.6-8.3-13.1-17.9-23.1c-4.4-4.6-8.6-8.5-14.9-11.3c-2.6-1.1-6.2-2.8-11-3c-3.9-0.2-8.7,0.6-19.8,7.9
		c0,0-17.3,11.4-30.4,33.2c-0.6,1-1.3,2.5-0.9,4c0,0,0.2,1.1,1.3,2.1c4.6,4.5,28.5,6.6,28.5,6.6s8.7,0.8,20.2,3.5
		c6.8,1.6,22.3,5.4,37.6,16.2c6.4,4.4,16.3,11.5,18.9,17c0.2,0.6,1.5,3.4,2.8,3.2C256.6,286.2,257.1,285,257.4,284z"/>
	<path class="st1" d="M63.7,205.7c-8-13-16-25.9-24-38.8c0.2-1.4,0.6-3.1,1-5.2c0.2-1,0.6-2.8,1-4.8c0,0,1-3.9,2.2-8.1
		c1.7-5.7,6.1-18.5,14.5-33.9c0.2-0.4,0.4-0.7,0.6-1c3.4,0.6,7.8,1.7,12.8,3.9c4.8,2.1,8.5,4.6,11.2,6.7c-1.3,2.2-3.1,5.3-5.2,9.1
		c-2.1,4-6,11.4-8.7,19.2c-3.8,10.7-4.4,19.5-5.2,29.4C63.3,188.2,63,196.2,63.7,205.7z"/>
	
		<ellipse transform="matrix(0.9482 -0.3178 0.3178 0.9482 -51.3731 48.5551)" class="st1" cx="123.1" cy="181.7" rx="25.3" ry="39.3"/>
	
		<ellipse transform="matrix(0.3559 -0.9345 0.9345 0.3559 -8.0762 381.6173)" class="st1" cx="272.8" cy="196.7" rx="39.3" ry="25.3"/>
	
		<ellipse transform="matrix(0.2283 -0.9736 0.9736 0.2283 59.0553 323.6515)" class="st1" cx="233.7" cy="124.6" rx="43.6" ry="25.3"/>
	<ellipse transform="matrix(0.9926 -0.1211 0.1211 0.9926 -13.5278 21.3663)" class="st1" cx="169" cy="122" rx="25.3" ry="43.6"/>
	<path class="st1" d="M197.1,354.4c-63.3,0-121-36.7-147-93.6L73.7,250c21.8,47.6,70.2,78.4,123.4,78.4
		c74.6,0,135.3-59.6,135.3-132.8S271.7,62.9,197.2,62.9c-47.3,0-91.7,24.7-116,64.5L59,114c14.1-23.1,34-42.3,57.7-55.8
		C141.1,44.3,168.9,37,197.2,37c88.8,0,161.1,71.2,161.1,158.7C358.3,283.2,286,354.4,197.1,354.4z"/>
</g>
</svg>
