<svg width="743" height="106" viewBox="0 0 743 106" fill="none" xmlns="http://www.w3.org/2000/svg">
<path fill-rule="evenodd" clip-rule="evenodd" d="M744 0H236L58.0575 6.98226e-06C53.4041 0.00796403 48.8556 0.819724 44.5602 2.41144C40.0815 4.06682 36.0568 6.50213 32.6082 9.64576L10.5813 29.7252C7.13278 32.8688 4.46999 36.5298 2.64531 40.6205C0.890504 44.5679 3.73622e-07 48.7302 0 53.004C0.00874291 57.2698 0.89923 61.4321 2.65405 65.3795C4.46998 69.4623 7.14148 73.1311 10.59 76.2748L32.6082 96.3463C36.0568 99.4899 40.0727 101.917 44.5602 103.581C48.8643 105.172 53.4041 105.984 58.0575 105.992V106L236 106H240H744V0Z" fill="#F9B000"/>
</svg>
