<?xml version="1.0" encoding="utf-8"?>
<!-- Generator: Adobe Illustrator 23.1.0, SVG Export Plug-In . SVG Version: 6.00 Build 0)  -->
<svg version="1.1" id="Layer_1" xmlns="http://www.w3.org/2000/svg" xmlns:xlink="http://www.w3.org/1999/xlink" x="0px" y="0px"
	 viewBox="0 0 400 393" style="enable-background:new 0 0 400 393;" xml:space="preserve">
<style type="text/css">
	.st0{fill:#fff;}
</style>
<g>
	<path class="st0" d="M1.4,182.2c-2.8,0.4-3.4,48.6,17.3,95.1c2.7,6.1,8.1,17.6,16.2,29.3c40.3,58.7,138.3,83.3,210.1,55.4
		c19.5-7.5,32.7-17.5,32.7-17.5c0.2-0.2,0.3-0.3,0.3-0.3c0.1-0.1,0.3-0.4,0.4-0.7c0.1-0.5-0.2-1-0.3-1.1c-1-1.6-2.6-13.1-12.3-27
		c-3.9-5.5-7.5-9.2-9.6-11.3c-3.1-3.1-10.2-9.8-20.6-15.8c-7.4-4.2-14.8-7-34.1-11.8c-18.3-4.5-18.3-3.6-36.1-7.8
		c0,0-48.3-11.2-60-22.6c-0.2-0.2-1.4-1.4-3.3-2.3c-3.1-1.4-8.2-2.3-11.4,0.3c-2.6,2.2-2.8,5.8-2.9,7.4c-0.3,8,5.2,14.8,9.6,19.4
		c21.4,22.1,55.2,33.4,58.8,33.9c0.3,0,1.7,0.2,2.9,1.2c0.7,0.6,1.5,1.7,1.3,2.4c-0.5,2.2-10.8,1.5-12,1.4
		c-11.2-0.8-21.1-4-30.7-7.9c-8.7-3.6-19.1-7.9-31.3-16.5c-2.3-1.6-8.9-6.4-21.3-18.2c-12.8-12.1-26.6-25.2-39.5-44.6
		c-11.6-17.4-17.5-26-22.2-36.9C2.5,183.7,1.9,182.1,1.4,182.2z"/>
	<path class="st0" d="M275.6,305.9c0.2-0.9,0.4-2.2,0.6-3.8c1.2-8.9,0.5-17.6-2.8-26.8c-6.3-17.8-14.2-30.9-17.8-36.6
		c-2.8-4.5-10.3-16.2-22.2-28.6c-5.4-5.7-10.7-10.5-18.5-14c-3.2-1.4-7.7-3.5-13.6-3.7c-4.8-0.2-10.8,0.8-24.5,9.8
		c0,0-21.4,14.1-37.6,41.1c-0.8,1.3-1.6,3.1-1.1,5c0,0,0.3,1.4,1.6,2.6c5.7,5.6,35.3,8.2,35.3,8.2s10.8,1,25,4.3
		c8.4,2,27.6,6.7,46.6,20.1c7.9,5.5,20.2,14.3,23.4,21.1c0.3,0.7,1.9,4.2,3.5,4C274.5,308.6,275.2,307.1,275.6,305.9z"/>
	<path class="st0" d="M35.7,208.9c-9.9-16.1-19.8-32.1-29.7-48.1c0.3-1.7,0.7-3.9,1.3-6.5c0.3-1.3,0.7-3.5,1.3-5.9
		c0,0,1.2-4.8,2.7-10c2.1-7.1,7.6-22.9,18-42c0.3-0.5,0.5-0.9,0.7-1.2c4.2,0.7,9.7,2.1,15.8,4.8c5.9,2.6,10.5,5.7,13.9,8.3
		c-1.6,2.7-3.9,6.6-6.4,11.3c-2.6,4.9-7.4,14.1-10.8,23.8c-4.7,13.3-5.5,24.1-6.5,36.4C35.2,187.2,34.8,197.1,35.7,208.9z"/>
	
		<ellipse transform="matrix(0.9482 -0.3178 0.3178 0.9482 -51.2929 44.0353)" class="st0" cx="109.3" cy="179.2" rx="31.3" ry="48.7"/>
	
		<ellipse transform="matrix(0.3559 -0.9345 0.9345 0.3559 5.0324 402.6372)" class="st0" cx="294.6" cy="197.7" rx="48.7" ry="31.3"/>
	
		<ellipse transform="matrix(0.2283 -0.9736 0.9736 0.2283 84.4426 323.3696)" class="st0" cx="246.2" cy="108.4" rx="54" ry="31.3"/>
	<ellipse transform="matrix(0.9926 -0.1211 0.1211 0.9926 -11.512 20.8934)" class="st0" cx="166.1" cy="105.2" rx="31.3" ry="54"/>
	<path class="st0" d="M200.9,393c-78.4,0-149.9-45.5-182-115.9l29.2-13.3c27,59,86.9,97.1,152.8,97.1c92.4,0,167.5-73.8,167.5-164.4
		S293.3,32.1,201,32.1c-58.6,0-113.6,30.6-143.7,79.9L29.9,95.3C47.3,66.7,72,42.9,101.3,26.2C131.5,9,165.9,0,201,0
		c110,0,199.5,88.2,199.5,196.5C400.5,304.9,311,393,200.9,393z"/>
</g>
</svg>
