<svg width="42" height="38" viewBox="0 0 42 38" fill="none" xmlns="http://www.w3.org/2000/svg">
<path d="M20.9997 16.3748C14.4855 16.3748 5.24965 26.445 5.24965 32.8016C5.24965 35.6645 7.44891 37.3749 11.1346 37.3749C15.141 37.3749 17.7865 35.3175 20.9997 35.3175C24.2407 35.3175 26.8936 37.3749 30.8647 37.3749C34.5504 37.3749 36.7497 35.6645 36.7497 32.8016C36.7497 26.445 27.5138 16.3748 20.9997 16.3748ZM8.91809 15.3404C8.06497 12.4981 5.43668 10.6573 3.04793 11.2282C0.659184 11.7991 -0.58523 14.5661 0.267895 17.4084C1.12102 20.2508 3.7493 22.0916 6.13805 21.5207C8.5268 20.9497 9.77122 18.1828 8.91809 15.3404ZM15.8678 13.6358C18.4058 12.9681 19.6757 9.53918 18.7044 5.97739C17.7332 2.41559 14.8883 0.0703145 12.3503 0.738049C9.81223 1.40578 8.54239 4.83469 9.51364 8.39649C10.4849 11.9583 13.3306 14.3044 15.8678 13.6358ZM38.9506 11.229C36.5618 10.6581 33.9343 12.4989 33.0804 15.3413C32.2273 18.1836 33.4717 20.9506 35.8604 21.5215C38.2492 22.0924 40.8766 20.2516 41.7306 17.4093C42.5837 14.5669 41.3393 11.8 38.9506 11.229ZM26.1315 13.6358C28.6696 14.3036 31.5144 11.9583 32.4857 8.39649C33.4569 4.83469 32.1871 1.4066 29.649 0.738049C27.111 0.0694942 24.2661 2.41559 23.2949 5.97739C22.3236 9.53918 23.5935 12.9681 26.1315 13.6358Z" fill="#EB6534"/>
</svg>
