<svg width="1353" height="106" viewBox="0 0 1353 106" fill="none" xmlns="http://www.w3.org/2000/svg">
<path d="M2.65406 65.3794C4.46999 69.4621 7.14156 73.131 10.5901 76.2746L32.6083 96.3461C36.0568 99.4897 40.0727 101.917 44.5602 103.58C48.8643 105.172 53.4042 105.984 58.0575 105.992L58.0575 106L1352.5 106L1352.5 2.28882e-05L58.0575 -0.000113164C53.4042 0.00784498 48.8556 0.819598 44.5602 2.41131C40.0815 4.06669 36.0568 6.50202 32.6083 9.64564L10.5813 29.7251C7.13278 32.8687 4.47006 36.5296 2.64539 40.6203C0.890571 44.5678 5.00668e-06 48.7301 4.63306e-06 53.0038C0.00873471 57.2696 0.899236 61.4319 2.65406 65.3794Z" fill="#F9B000"/>
</svg>
