<?xml version="1.0" encoding="utf-8"?>
<!-- Generator: Adobe Illustrator 23.1.0, SVG Export Plug-In . SVG Version: 6.00 Build 0)  -->
<svg version="1.1" id="Layer_1" xmlns="http://www.w3.org/2000/svg" xmlns:xlink="http://www.w3.org/1999/xlink" x="0px" y="0px"
	 viewBox="0 0 351 41" style="enable-background:new 0 0 351 41;" xml:space="preserve">
<style type="text/css">
	.st0{fill:#FFFFFF;}
</style>
<path class="st0" d="M3.1,40.4c-0.9,0-1.6-0.4-2.2-1C0.2,38.8,0,38.1,0,37.3V3.7c0-0.8,0.2-1.6,0.9-2.2c0.6-0.6,1.4-1,2.2-1h1.5
	c0.9,0,1.6,0.4,2.2,1c0.6,0.6,1,1.3,1,2.2v12.4c0,0.2,0.1,0.5,0.5,0.5h14c0.2,0,0.5-0.1,0.5-0.5V3.7c0-0.8,0.4-1.6,1-2.2
	c0.6-0.6,1.4-1,2.2-1h1.5c0.9,0,1.6,0.4,2.2,1c0.6,0.6,0.9,1.3,0.9,2.2v33.5c0,0.8-0.2,1.6-0.9,2.2c-0.6,0.6-1.4,1-2.2,1h-1.6
	c-0.9,0-1.6-0.4-2.2-1c-0.6-0.6-1-1.3-1-2.2V22.8c0-0.4-0.1-0.5-0.5-0.5h-14c-0.2,0-0.5,0.1-0.5,0.5v14.5c0,0.8-0.4,1.6-1,2.2
	c-0.6,0.6-1.4,1-2.2,1H3.1z"/>
<path class="st0" d="M38.9,40.4c-0.7,0-1.4-0.4-1.9-1c-0.5-0.6-0.5-1.3-0.2-2L48.4,3.5c0.4-0.8,0.9-1.6,1.6-2.2
	c0.7-0.6,1.6-0.8,2.6-0.8h2c1,0,1.9,0.2,2.6,0.8c0.7,0.6,1.2,1.2,1.6,2.2l11.6,33.9c0.2,0.7,0.1,1.4-0.2,2c-0.5,0.6-1.1,1-1.9,1h-2
	c-0.9,0-1.7-0.2-2.5-0.8c-0.7-0.6-1.2-1.3-1.5-2.2l-1.7-6.2c0-0.2-0.2-0.5-0.6-0.5H47.5c-0.4,0-0.5,0.1-0.6,0.5l-1.7,6.2
	c-0.2,0.8-0.7,1.6-1.5,2.2c-0.7,0.6-1.6,0.8-2.6,0.8H38.9z M53.4,7.4l-4.9,17.1c0,0.1,0,0.2,0,0.4c0.1,0.1,0.1,0.1,0.2,0.1H58
	c0.1,0,0.2,0,0.2-0.1c0.1-0.1,0.1-0.2,0-0.4L53.4,7.4C53.4,7.4,53.5,7.4,53.4,7.4z"/>
<path class="st0" d="M79,40.4c-0.9,0-1.6-0.4-2.2-1c-0.6-0.6-0.9-1.3-0.9-2.2V3.7c0-0.8,0.2-1.6,0.9-2.2c0.6-0.6,1.4-1,2.2-1h1.2
	c2.1,0,3.7,1,4.7,2.8l13.8,24.4V3.9c0-0.8,0.4-1.6,1-2.2c0.6-0.6,1.4-1,2.2-1h1.2c0.9,0,1.6,0.4,2.2,1c0.6,0.6,0.9,1.3,0.9,2.2v33.4
	c0,0.8-0.2,1.6-0.9,2.2c-0.6,0.6-1.4,1-2.2,1H102c-2.1,0-3.7-1-4.7-2.8L83.4,13.3v24c0,0.8-0.4,1.6-1,2.2c-0.6,0.6-1.4,1-2.2,1H79z"
	/>
<path class="st0" d="M118.3,40.6c-1-0.1-1.7-0.5-2.3-1.2c-0.6-0.7-0.9-1.4-0.9-2.4V4c0-1,0.2-1.7,0.9-2.4c0.6-0.7,1.4-1.1,2.3-1.2
	c2.3-0.2,5.1-0.4,8-0.4c6.7,0,11.7,1.7,15.2,5.1c3.5,3.4,5.3,8.3,5.3,14.8c0,7-1.7,12.2-5.3,15.7c-3.5,3.5-8.7,5.3-15.2,5.3
	C123.3,41,120.6,40.9,118.3,40.6z M122.8,7v27.1c0,0.2,0.1,0.4,0.5,0.5c1.2,0.2,2.3,0.2,3.3,0.2c4.3,0,7.5-1.2,9.6-3.5
	c2.1-2.3,3.1-6.1,3.1-11.5c0-4.7-1-8.2-3.1-10.5C134.2,7.2,131,6,126.8,6c-1,0-2.1,0.1-3.3,0.2C123,6.5,122.8,6.8,122.8,7z"/>
<path class="st0" d="M163.6,7c-0.9,0-1.6-0.2-2.2-0.8c-0.6-0.6-1-1.3-1-2.2V3.9c0-0.8,0.4-1.6,1-2.2c0.6-0.6,1.4-1,2.2-1h23.7
	c0.9,0,1.6,0.4,2.2,1c0.6,0.6,1,1.3,1,2.2V4c0,0.8-0.4,1.6-1,2.2C189,6.8,188.2,7,187.3,7h-7.5c-0.2,0-0.5,0.1-0.5,0.5v29.8
	c0,0.8-0.4,1.6-1,2.2c-0.6,0.6-1.4,1-2.2,1h-1.6c-0.9,0-1.6-0.4-2.2-1c-0.6-0.6-1-1.3-1-2.2V7.4c0-0.4-0.1-0.5-0.5-0.5h-7.2V7z"/>
<path class="st0" d="M225.4,35.6c-3.3,3.6-7.9,5.4-13.6,5.4s-10.3-1.8-13.6-5.4c-3.3-3.6-4.9-8.6-4.9-15.1c0-6.4,1.6-11.5,4.9-15.1
	c3.3-3.6,7.9-5.4,13.6-5.4s10.3,1.8,13.6,5.4c3.3,3.6,4.9,8.6,4.9,15.1C230.5,27,228.7,32,225.4,35.6z M222.4,20.5
	c0-9.4-3.6-14.1-10.6-14.1c-7,0-10.6,4.7-10.6,14.1s3.6,14.1,10.6,14.1C219,34.7,222.4,30,222.4,20.5z"/>
<path class="st0" d="M248.6,40.4c-0.9,0-1.6-0.4-2.2-1c-0.6-0.6-0.9-1.3-0.9-2.2V4c0-0.8,0.2-1.7,0.9-2.3c0.6-0.7,1.4-1.1,2.2-1.1
	c3.2-0.2,6.2-0.5,9.1-0.5c5.6,0,9.8,1.1,12.6,3.3c2.8,2.2,4.2,5.3,4.2,9.4c0,4.6-1.4,8-4.1,10.3c-2.7,2.3-6.7,3.5-12,3.5
	c-1.2,0-2.8-0.1-4.8-0.2c-0.2,0-0.5,0.1-0.5,0.5v10.6c0,0.8-0.4,1.6-1,2.2c-0.6,0.6-1.4,1-2.2,1h-1.4V40.4z M253.2,6.9V20
	c0,0.2,0.1,0.4,0.5,0.5c1.4,0.2,2.8,0.2,4.1,0.2c3,0,5.3-0.6,6.9-1.9c1.6-1.3,2.3-3.1,2.3-5.5c0-4.8-3.1-7.2-9.3-7.2
	c-1.4,0-2.7,0.1-4.1,0.2C253.3,6.4,253.2,6.6,253.2,6.9z"/>
<path class="st0" d="M276.2,40.4c-0.7,0-1.4-0.4-1.9-1c-0.5-0.6-0.5-1.3-0.2-2l11.6-33.9c0.4-0.8,0.9-1.6,1.6-2.2
	c0.7-0.6,1.6-0.8,2.6-0.8h2c1,0,1.9,0.2,2.6,0.8c0.7,0.6,1.2,1.2,1.6,2.2l11.6,33.9c0.2,0.7,0.1,1.4-0.2,2c-0.5,0.6-1.1,1-1.9,1h-2
	c-0.9,0-1.7-0.2-2.5-0.8c-0.7-0.6-1.2-1.3-1.5-2.2l-2-6.2c0-0.2-0.2-0.5-0.6-0.5h-12.6c-0.4,0-0.5,0.1-0.6,0.5l-1.7,6.2
	c-0.2,0.8-0.7,1.6-1.5,2.2c-0.7,0.6-1.6,0.8-2.6,0.8H276.2z M290.7,7.4l-4.9,17.1c0,0.1,0,0.2,0,0.4c0.1,0.1,0.1,0.1,0.2,0.1h9.3
	c0.1,0,0.2,0,0.2-0.1c0.1-0.1,0.1-0.2,0-0.4L290.7,7.4C290.8,7.4,290.8,7.4,290.7,7.4C290.7,7.4,290.8,7.4,290.7,7.4z"/>
<path class="st0" d="M313.9,37.4l-7.2-33.6c-0.2-0.8,0-1.4,0.5-2.2c0.5-0.6,1.2-1,2-1h1.6c1,0,1.7,0.2,2.3,0.8
	c0.6,0.6,1.1,1.3,1.2,2.2l4.7,28.7c0.1,0,0.1,0,0.1,0l4.4-28.7c0.1-0.8,0.6-1.6,1.2-2.2c0.6-0.6,1.5-0.8,2.3-0.8h3.3
	c1,0,1.7,0.2,2.3,0.8c0.6,0.6,1.1,1.3,1.2,2.2l4.6,28.7l4.7-28.7c0.1-0.8,0.6-1.6,1.2-2.2c0.6-0.6,1.5-0.8,2.3-0.8h1.4
	c0.9,0,1.5,0.4,2,1c0.5,0.6,0.7,1.3,0.6,2.2l-7.2,33.6c-0.2,0.8-0.6,1.6-1.4,2.2c-0.7,0.6-1.5,0.8-2.5,0.8h-3c-1,0-1.7-0.2-2.5-0.8
	c-0.7-0.6-1.1-1.3-1.2-2.2l-4.7-28.7l-4.7,28.7c-0.1,0.8-0.6,1.6-1.2,2.2c-0.7,0.6-1.5,0.8-2.5,0.8h-3c-1,0-1.7-0.2-2.5-0.8
	C314.5,39,314,38.2,313.9,37.4z"/>
</svg>
